<svg width="21" height="24" viewBox="0 0 21 24" fill="none" xmlns="http://www.w3.org/2000/svg">
<path d="M2.33333 23.3342H18.6666C19.2855 23.3342 19.879 23.0884 20.3166 22.6508C20.7541 22.2132 21 21.6197 21 21.0009V10.5009C21.0009 10.3474 20.9714 10.1952 20.9134 10.053C20.8553 9.91088 20.7698 9.7816 20.6616 9.67258L11.3283 0.339258C11.1097 0.121965 10.814 0 10.5058 0C10.1976 0 9.90191 0.121965 9.68332 0.339258L0.35 9.67258C0.239764 9.78063 0.152065 9.90949 0.0919861 10.0517C0.0319067 10.1939 0.000640791 10.3466 0 10.5009V21.0009C0 21.6197 0.245832 22.2132 0.683417 22.6508C1.121 23.0884 1.71449 23.3342 2.33333 23.3342ZM8.16666 21.0009V15.1676H12.8333V21.0009H8.16666ZM2.33333 10.9792L10.5 2.81259L18.6666 10.9792V21.0009H15.1667V15.1676C15.1667 14.5487 14.9208 13.9552 14.4832 13.5177C14.0457 13.0801 13.4522 12.8342 12.8333 12.8342H8.16666C7.54782 12.8342 6.95433 13.0801 6.51675 13.5177C6.07916 13.9552 5.83333 14.5487 5.83333 15.1676V21.0009H2.33333V10.9792Z" fill="#02A2FA"/>
</svg>
